<svg xmlns="http://www.w3.org/2000/svg" xmlns:xlink="http://www.w3.org/1999/xlink" width="153" height="15" viewBox="0 0 153 15">
    <defs>
        <path id="a" d="M.776.789h152.223v13.49H.776z"/>
        <path id="c" d="M.776.789h152.223v13.49H.776z"/>
        <path id="e" d="M.776.789h152.223v13.49H.776z"/>
        <path id="g" d="M.776.789h152.223v13.49H.776z"/>
        <path id="i" d="M.776.789h152.223v13.49H.776z"/>
        <path id="k" d="M.776.789h152.223v13.49H.776z"/>
        <path id="m" d="M.776.789h152.223v13.49H.776z"/>
        <path id="o" d="M.776.789h152.223v13.49H.776z"/>
        <path id="q" d="M.776.789h152.223v13.49H.776z"/>
        <path id="s" d="M.776.789h152.223v13.49H.776z"/>
        <path id="u" d="M.776.789h152.223v13.49H.776z"/>
        <path id="w" d="M.776.789h152.223v13.49H.776z"/>
        <path id="y" d="M.776.789h152.223v13.49H.776z"/>
        <path id="A" d="M.776.789h152.223v13.49H.776z"/>
        <path id="C" d="M.776.789h152.223v13.49H.776z"/>
        <path id="E" d="M.776.789h152.223v13.49H.776z"/>
        <path id="G" d="M.776.789h152.223v13.49H.776z"/>
        <path id="I" d="M.776.789h152.223v13.49H.776z"/>
        <path id="K" d="M.776.789h152.223v13.49H.776z"/>
        <path id="M" d="M.776.789h152.223v13.49H.776z"/>
    </defs>
    <g fill="none" fill-rule="evenodd">
        <g>
            <mask id="b" fill="#fff">
                <use xlink:href="#a"/>
            </mask>
            <path fill="#000" fill-rule="nonzero" d="M24.746 8.612c0 1.041.194 1.79.582 2.244.387.455 1.039.682 1.954.682.328 0 .611-.02.85-.06V9.809c-.2.021-.343.03-.433.03-.348 0-.603-.092-.768-.28-.164-.186-.247-.532-.247-1.038V5.322h1.448V3.684h-1.448V1.365l-1.938.622v1.697h-1.015v1.638h1.015v3.29z" mask="url(#b)"/>
        </g>
        <g>
            <mask id="d" fill="#fff">
                <use xlink:href="#c"/>
            </mask>
            <path fill="#000" fill-rule="nonzero" d="M114.431 9.506h-3.772v-8.11h-2.03v10.006h5.802z" mask="url(#d)"/>
        </g>
        <g>
            <mask id="f" fill="#fff">
                <use xlink:href="#e"/>
            </mask>
            <path fill="#000" fill-rule="nonzero" d="M77.831 9.992c-.666 0-1.302-.233-1.91-.698l-.744 1.35c.716.627 1.605.94 2.669.94.955 0 1.69-.22 2.208-.66.516-.44.776-1.064.776-1.872 0-.576-.16-1.049-.478-1.418-.319-.37-.8-.639-1.447-.811l-.73-.197c-.498-.132-.746-.39-.746-.774 0-.242.084-.43.253-.56.17-.132.413-.197.731-.197.557 0 1.119.187 1.685.56l.686-1.334a3.635 3.635 0 0 0-1.185-.614 4.71 4.71 0 0 0-1.394-.205c-.866 0-1.535.212-2.007.637-.472.425-.708 1.016-.708 1.774 0 1.193.611 1.956 1.834 2.29l.76.212c.27.081.465.177.59.288a.582.582 0 0 1 .187.455c0 .556-.344.834-1.03.834" mask="url(#f)"/>
        </g>
        <g>
            <mask id="h" fill="#fff">
                <use xlink:href="#g"/>
            </mask>
            <path fill="#000" fill-rule="nonzero" d="M4.014 1.395H.777v10.007h3.237c1.292 0 2.29-.4 2.99-1.198.701-.799 1.051-1.935 1.051-3.411v-.789c0-1.485-.35-2.626-1.051-3.419-.7-.793-1.698-1.19-2.99-1.19zm2.013 5.337c0 1.89-.686 2.835-2.058 2.835H2.805V3.23H3.97c.686 0 1.2.232 1.544.697.343.465.514 1.178.514 2.138v.667z" mask="url(#h)"/>
        </g>
        <g>
            <mask id="j" fill="#fff">
                <use xlink:href="#i"/>
            </mask>
            <path fill="#000" fill-rule="nonzero" d="M20.749 9.961v1.44h1.834V3.685H20.63v5.307c-.14.253-.315.455-.529.606-.214.152-.45.228-.708.228-.339 0-.575-.114-.71-.341-.133-.228-.2-.584-.2-1.07v-4.73h-1.954v4.898c0 .99.183 1.733.551 2.228.368.496.89.744 1.566.744.935 0 1.636-.531 2.104-1.593" mask="url(#j)"/>
        </g>
        <g>
            <mask id="l" fill="#fff">
                <use xlink:href="#k"/>
            </mask>
            <path fill="#000" fill-rule="nonzero" d="M15.2 10.643l-.775-1.273a2.778 2.778 0 0 1-1.686.561c-.527 0-.922-.141-1.186-.425-.263-.282-.42-.732-.47-1.349h4.236v-.894c0-1.193-.263-2.118-.79-2.775s-1.273-.986-2.238-.986c-.974 0-1.742.326-2.304.979-.562.651-.842 1.569-.842 2.751v.607c0 1.182.305 2.102.917 2.76.611.657 1.459.985 2.543.985 1.014 0 1.88-.313 2.595-.94m-2.923-5.565c.388 0 .676.15.865.447.188.3.298.757.328 1.373H11.07c.03-1.213.432-1.82 1.208-1.82" mask="url(#l)"/>
        </g>
        <g>
            <mask id="n" fill="#fff">
                <use xlink:href="#m"/>
            </mask>
            <path fill="#000" fill-rule="nonzero" d="M82.544 8.612c0 1.041.195 1.79.582 2.244.388.455 1.038.682 1.954.682.328 0 .612-.02.85-.06V9.809c-.199.021-.343.03-.432.03-.35 0-.604-.092-.769-.28-.163-.186-.245-.532-.245-1.038V5.322h1.446V3.684h-1.446V1.365l-1.94.622v1.697H81.53v1.638h1.014v3.29z" mask="url(#n)"/>
        </g>
        <g>
            <mask id="p" fill="#fff">
                <use xlink:href="#o"/>
            </mask>
            <path fill="#000" fill-rule="nonzero" d="M31.607 9.992c-.667 0-1.303-.233-1.909-.698l-.731 1.35c.716.627 1.6.94 2.655.94.954 0 1.693-.22 2.215-.66.522-.44.783-1.064.783-1.872 0-.576-.16-1.049-.477-1.418-.319-.37-.801-.639-1.448-.811l-.73-.197c-.259-.07-.45-.17-.574-.296a.65.65 0 0 1-.187-.478c0-.242.085-.43.254-.56.17-.132.418-.197.746-.197.556 0 1.118.187 1.685.56l.671-1.334a3.468 3.468 0 0 0-1.17-.614 4.709 4.709 0 0 0-1.395-.205c-.865 0-1.537.212-2.014.637-.477.425-.716 1.016-.716 1.774 0 .607.152 1.097.455 1.47.303.375.768.648 1.394.82l.746.212c.279.081.48.177.604.288a.58.58 0 0 1 .187.455c0 .556-.348.834-1.044.834" mask="url(#p)"/>
        </g>
        <g>
            <mask id="r" fill="#fff">
                <use xlink:href="#q"/>
            </mask>
            <path fill="#000" fill-rule="nonzero" d="M93.938 1.395h-3.221v10.007h3.22c1.294 0 2.29-.4 2.992-1.198.7-.799 1.051-1.935 1.051-3.411v-.789c0-1.485-.35-2.626-1.05-3.419-.702-.793-1.699-1.19-2.992-1.19zm2.014 5.337c0 1.89-.687 2.835-2.059 2.835h-1.148V3.23h1.148c.687 0 1.201.232 1.544.697.343.465.515 1.178.515 2.138v.667z" mask="url(#r)"/>
        </g>
        <g>
            <mask id="t" fill="#fff">
                <use xlink:href="#s"/>
            </mask>
            <path fill="#000" fill-rule="nonzero" d="M106.66 11.402V1.395h-2.028v4.033h-3.162V1.395h-2.028v10.007h2.028V7.248h3.162v4.154z" mask="url(#t)"/>
        </g>
        <g>
            <mask id="v" fill="#fff">
                <use xlink:href="#u"/>
            </mask>
            <path fill="#000" fill-rule="nonzero" d="M74.46 7.899v-.727c0-1.163-.286-2.067-.857-2.714-.572-.647-1.37-.97-2.394-.97-1.034 0-1.837.323-2.41.97-.571.647-.857 1.551-.857 2.714v.727c0 1.163.286 2.068.858 2.714.572.647 1.37.97 2.394.97 1.034 0 1.837-.323 2.41-.97.57-.646.857-1.551.857-2.714zm-1.954-.045c0 .697-.11 1.205-.328 1.524-.219.318-.547.477-.984.477-.428 0-.751-.159-.97-.477-.219-.32-.327-.827-.327-1.524v-.637c0-.697.108-1.206.327-1.524.219-.318.547-.477.985-.477.427 0 .75.159.97.477.218.318.327.827.327 1.524v.637z" mask="url(#v)"/>
        </g>
        <g>
            <mask id="x" fill="#fff">
                <use xlink:href="#w"/>
            </mask>
            <path fill="#000" fill-rule="nonzero" d="M52.951 3.502c-.975 0-1.743.326-2.305.979-.562.651-.843 1.568-.843 2.751v.607c0 1.182.306 2.102.918 2.76.611.656 1.459.984 2.543.984 1.024 0 1.894-.312 2.61-.94l-.79-1.273a2.778 2.778 0 0 1-1.686.561c-.527 0-.922-.141-1.185-.425-.264-.282-.42-.732-.47-1.349h4.25v-.894c0-1.203-.266-2.13-.798-2.782-.531-.653-1.28-.979-2.244-.979zM51.728 6.9c.05-1.213.452-1.82 1.208-1.82.387 0 .679.15.872.447.194.3.306.757.336 1.373h-2.416z" mask="url(#x)"/>
        </g>
        <g>
            <mask id="z" fill="#fff">
                <use xlink:href="#y"/>
            </mask>
            <path fill="#000" fill-rule="nonzero" d="M46.284 3.533c-.885 0-1.556.445-2.014 1.334V.789h-1.954v10.613h1.954V6.095c.14-.253.31-.455.514-.606.204-.152.436-.228.694-.228.358 0 .62.124.783.372.164.248.247.614.247 1.099v4.67h1.953V6.489c0-.93-.194-1.655-.581-2.175-.388-.52-.92-.781-1.596-.781" mask="url(#z)"/>
        </g>
        <g>
            <mask id="B" fill="#fff">
                <use xlink:href="#A"/>
            </mask>
            <path fill="#000" fill-rule="nonzero" d="M41.302 10.538l-.954-1.244c-.19.192-.388.334-.598.425-.208.09-.437.136-.685.136-.487 0-.868-.167-1.141-.5-.273-.334-.41-.854-.41-1.562v-.53c0-.677.134-1.185.402-1.524.269-.339.642-.508 1.119-.508s.89.192 1.238.576l.954-1.304a2.93 2.93 0 0 0-1.013-.728c-.409-.182-.876-.273-1.403-.273-.646 0-1.213.147-1.7.44-.487.293-.868.72-1.141 1.282-.274.56-.41 1.23-.41 2.008v.607c0 1.192.295 2.115.887 2.767.592.651 1.39.977 2.394.977 1.054 0 1.874-.348 2.461-1.045" mask="url(#B)"/>
        </g>
        <g>
            <mask id="D" fill="#fff">
                <use xlink:href="#C"/>
            </mask>
            <path fill="#000" fill-rule="nonzero" d="M67.27 4.807v-.304c0-1.02-.32-1.794-.96-2.32-.642-.525-1.535-.788-2.679-.788h-3.087v10.007h2.029V7.93h1.058c1.144 0 2.037-.26 2.678-.78.641-.521.962-1.303.962-2.343zm-2.027-.016c0 .94-.527 1.41-1.581 1.41h-1.09V3.124h1.09c.517 0 .91.113 1.178.34.269.228.403.595.403 1.1v.227z" mask="url(#D)"/>
        </g>
        <g>
            <mask id="F" fill="#fff">
                <use xlink:href="#E"/>
            </mask>
            <path fill="#000" fill-rule="nonzero" d="M121.23 7.43h1.82v.09c0 .718-.149 1.274-.447 1.668-.299.394-.74.591-1.328.591-.637 0-1.109-.248-1.417-.743-.307-.494-.462-1.248-.462-2.258v-.759c0-2.001.686-3.002 2.058-3.002.736 0 1.363.293 1.88.88l1.193-1.35c-.766-.92-1.815-1.379-3.147-1.379-.816 0-1.527.184-2.134.553-.606.369-1.074.912-1.401 1.63-.329.718-.493 1.582-.493 2.593v.909c0 1.537.341 2.716 1.022 3.541.681.823 1.648 1.235 2.901 1.235 1.164 0 2.08-.366 2.752-1.099.672-.733 1.007-1.761 1.007-3.085V5.64h-3.804v1.79z" mask="url(#F)"/>
        </g>
        <g>
            <mask id="H" fill="#fff">
                <use xlink:href="#G"/>
            </mask>
            <path fill="#000" fill-rule="nonzero" d="M128.934 4.17c-.303.374-.538.869-.708 1.485v-1.97h-1.834v7.717h1.954V6.595a1.96 1.96 0 0 1 1.73-1.015c.129 0 .283.01.462.03V3.654a2.398 2.398 0 0 0-.447-.045c-.468 0-.854.186-1.157.56" mask="url(#H)"/>
        </g>
        <g>
            <mask id="J" fill="#fff">
                <use xlink:href="#I"/>
            </mask>
            <path fill="#000" fill-rule="nonzero" d="M137.637 7.187c0-1.163-.285-2.068-.857-2.714-.572-.647-1.37-.97-2.394-.97-1.035 0-1.837.323-2.41.97-.57.646-.856 1.551-.856 2.714v.727c0 1.163.285 2.068.857 2.715.572.646 1.37.97 2.394.97 1.034 0 1.837-.324 2.41-.97.571-.647.856-1.552.856-2.715v-.727zm-1.953.682c0 .687-.11 1.193-.329 1.516-.218.323-.547.486-.984.486-.428 0-.751-.163-.97-.486-.218-.323-.328-.829-.328-1.516v-.637c0-.687.11-1.193.328-1.516.219-.324.547-.485.985-.485.427 0 .75.161.97.485.218.323.328.829.328 1.516v.637z" mask="url(#J)"/>
        </g>
        <g>
            <mask id="L" fill="#fff">
                <use xlink:href="#K"/>
            </mask>
            <path fill="#000" fill-rule="nonzero" d="M143.022 8.99c-.14.254-.316.456-.53.607a1.19 1.19 0 0 1-.708.228c-.329 0-.562-.114-.701-.341-.14-.228-.21-.579-.21-1.054V3.684h-1.952v4.897c0 .991.183 1.734.551 2.23.368.494.89.742 1.566.742.935 0 1.636-.53 2.103-1.592v1.44h1.835V3.685h-1.954v5.307z" mask="url(#L)"/>
        </g>
        <g>
            <mask id="N" fill="#fff">
                <use xlink:href="#M"/>
            </mask>
            <path fill="#000" fill-rule="nonzero" d="M152.359 4.495c-.428-.641-1.045-.962-1.85-.962-.527 0-.964.154-1.312.463-.348.307-.602.724-.761 1.25V3.684h-1.835v10.599h1.955v-4.018c.178.384.43.695.753.932.323.238.718.357 1.185.357.806 0 1.425-.322 1.857-.964.433-.641.65-1.548.65-2.721v-.637c0-1.183-.215-2.095-.642-2.737zm-1.313 3.329c0 .706-.107 1.218-.32 1.531-.214.313-.52.47-.917.47-.269 0-.513-.079-.731-.235a1.71 1.71 0 0 1-.522-.6V6.096c.139-.243.315-.442.529-.599.213-.157.455-.235.724-.235.824 0 1.237.672 1.237 2.017v.546z" mask="url(#N)"/>
        </g>
    </g>
</svg>
