<?xml version="1.0" encoding="UTF-8"?>
<svg width="42px" height="42px" viewBox="0 0 42 42" version="1.1" xmlns="http://www.w3.org/2000/svg" xmlns:xlink="http://www.w3.org/1999/xlink">
    <!-- Generator: Sketch 54.1 (76490) - https://sketchapp.com -->
    <title>Icon SoMe / Facebook</title>
    <desc>Created with Sketch.</desc>
    <g id="Icon-SoMe-/-Facebook" stroke="none" stroke-width="1" fill="none" fill-rule="evenodd">
        <path d="M15.8423971,40.8910891 L15.8423971,23.8415842 L11.1128375,23.8415842 C10.5007769,23.8415842 10,23.3425743 10,22.7326733 L10,16.9108911 C10,16.3009901 10.5007769,15.8019802 11.1128375,15.8019802 L15.8423971,15.8019802 L15.8423971,10.1188119 C15.8423971,3.6039604 19.8764332,0 25.7188303,0 L30.5874946,0 C31.1995553,0 31.7003322,0.499009901 31.7003322,1.10891089 L31.7003322,6.0990099 C31.7003322,6.70891089 31.1995553,7.20792079 30.5874946,7.20792079 L27.6662961,7.20792079 C24.4668881,7.20792079 23.7713646,8.73267327 23.7713646,10.950495 L23.7713646,15.8019802 L30.865704,15.8019802 C31.5612275,15.8019802 32.1176462,16.3564356 31.9785415,17.049505 L31.2830181,22.8712871 C31.2830181,23.4257426 30.7265993,23.8415842 30.1701805,23.8415842 L23.9104693,23.8415842 L23.9104693,40.8910891 C23.9104693,41.5037624 23.4124745,42 22.7976318,42 L16.9552347,42 C16.3403919,42 15.8423971,41.5037624 15.8423971,40.8910891" id="Fill-1" fill="#666666"></path>
    </g>
</svg>