<?xml version="1.0" encoding="UTF-8"?>
<svg width="42px" height="42px" viewBox="0 0 42 42" version="1.1" xmlns="http://www.w3.org/2000/svg" xmlns:xlink="http://www.w3.org/1999/xlink">
    <!-- Generator: Sketch 54.1 (76490) - https://sketchapp.com -->
    <title>Icon SoMe / Instagram</title>
    <desc>Created with Sketch.</desc>
    <g id="Icon-SoMe-/-Instagram" stroke="none" stroke-width="1" fill="none" fill-rule="evenodd">
        <path d="M20.9999603,1 C26.4316739,1 27.1126824,1.02302314 29.245895,1.12035543 C31.3747412,1.21744955 32.8285332,1.5555721 34.10076,2.05001379 C35.4159368,2.56104803 36.5312886,3.24491457 37.6431473,4.35677327 C38.7550854,5.46871136 39.4388726,6.58406323 39.9499862,7.89916065 C40.4444279,9.1713874 40.7825504,10.6251794 40.8796446,12.7540256 C40.9769769,14.8872382 41,15.5683261 41,20.9999603 C41,26.4316739 40.9769769,27.1127618 40.8796446,29.2459744 C40.7825504,31.3747412 40.4444279,32.8286126 39.9499862,34.10076 C39.4388726,35.4159368 38.7550854,36.5312886 37.6431473,37.6431473 C36.5312886,38.7550854 35.4159368,39.4388726 34.10076,39.9500656 C32.8285332,40.4444279 31.3747412,40.7825504 29.245895,40.879724 C27.1126824,40.9769769 26.4316739,41 20.9999603,41 C15.5683261,41 14.8871588,40.9769769 12.7540256,40.879724 C10.6251794,40.7825504 9.1713874,40.4444279 7.89916065,39.9500656 C6.58406323,39.4388726 5.46863197,38.7550854 4.35677327,37.6431473 C3.24483518,36.5312886 2.56104803,35.4158574 2.0499344,34.10076 C1.55549271,32.8286126 1.21744955,31.3747412 1.12027604,29.2459744 C1.02294375,27.1127618 1,26.4316739 1,20.9999603 C1,15.5682467 1.02294375,14.8872382 1.12027604,12.7540256 C1.21744955,10.6251794 1.55549271,9.1713874 2.0499344,7.89916065 C2.56104803,6.58406323 3.24483518,5.46871136 4.35677327,4.35677327 C5.46863197,3.24491457 6.58406323,2.56104803 7.89916065,2.05001379 C9.1713874,1.5555721 10.6251794,1.21744955 12.7540256,1.12035543 C14.8871588,1.02302314 15.5683261,1 20.9999603,1 Z M20.9999603,4.60359717 C15.6597042,4.60359717 15.027203,4.62392104 12.9182044,4.72014187 C10.9683035,4.8091382 9.90923922,5.13495527 9.20449308,5.40885121 C8.27102399,5.77166408 7.60470267,6.20505477 6.90487872,6.90495811 C6.20505477,7.60478206 5.77158469,8.27102399 5.40877181,9.20457247 C5.13495527,9.90931861 4.8091382,10.9683035 4.72014187,12.9182837 C4.62392104,15.027203 4.60359717,15.6597835 4.60359717,20.9999603 C4.60359717,26.3402165 4.62392104,26.972797 4.72014187,29.0817163 C4.8091382,31.0316965 5.13495527,32.0906814 5.40877181,32.7954275 C5.77158469,33.7288966 6.20505477,34.3952179 6.90487872,35.0950419 C7.60470267,35.7949452 8.27102399,36.2283359 9.20449308,36.5911488 C9.90923922,36.8649653 10.9683035,37.1908618 12.9182837,37.2797787 C15.0268855,37.3759996 15.6593072,37.3964028 20.9999603,37.3964028 C26.3406134,37.3964028 26.9730351,37.3759996 29.0816369,37.2797787 C31.0316171,37.1908618 32.090602,36.8649653 32.7953481,36.5911488 C33.7288966,36.2283359 34.3952179,35.7949452 35.0950419,35.0950419 C35.7948658,34.3952179 36.2282565,33.7288966 36.5911488,32.7954275 C36.8649653,32.0906814 37.1907824,31.0316965 37.2797787,29.0816369 C37.3759202,26.972797 37.3963234,26.3402165 37.3963234,20.9999603 C37.3963234,15.6597835 37.3759202,15.027203 37.2797787,12.9182837 C37.1907824,10.9683035 36.8649653,9.90931861 36.5911488,9.20457247 C36.2282565,8.27102399 35.7948658,7.60478206 35.0950419,6.90487872 C34.3952179,6.20505477 33.7288966,5.77166408 32.7953481,5.40885121 C32.090602,5.13495527 31.0316171,4.8091382 29.0816369,4.72014187 C26.9727176,4.62392104 26.3402165,4.60359717 20.9999603,4.60359717 Z M20.9999603,27.6666667 C24.6818361,27.6666667 27.6666667,24.6818361 27.6666667,20.9999603 C27.6666667,17.3180845 24.6818361,14.3333333 20.9999603,14.3333333 C17.3180845,14.3333333 14.3332539,17.3180845 14.3332539,20.9999603 C14.3332539,24.6818361 17.3180845,27.6666667 20.9999603,27.6666667 Z M20.9999603,10.7297362 C26.6720672,10.7297362 31.2701844,15.3278534 31.2701844,20.9999603 C31.2701844,26.6721466 26.6720672,31.2702638 20.9999603,31.2702638 C15.3278534,31.2702638 10.7296568,26.6721466 10.7296568,20.9999603 C10.7296568,15.3278534 15.3278534,10.7297362 20.9999603,10.7297362 Z M34.0759982,10.3239574 C34.0759982,11.6494549 33.0015322,12.7239208 31.6760347,12.7239208 C30.3505372,12.7239208 29.2759918,11.6494549 29.2759918,10.3239574 C29.2759918,8.99845983 30.3505372,7.92399388 31.6760347,7.92399388 C33.0015322,7.92399388 34.0759982,8.99845983 34.0759982,10.3239574 Z" id="Combined-Shape" fill="#666666"></path>
    </g>
</svg>