<?xml version="1.0" encoding="UTF-8"?>
<svg width="42px" height="42px" viewBox="0 0 42 42" version="1.1" xmlns="http://www.w3.org/2000/svg" xmlns:xlink="http://www.w3.org/1999/xlink">
    <!-- Generator: Sketch 54.1 (76490) - https://sketchapp.com -->
    <title>Icon SoMe / LinkedIn</title>
    <desc>Created with Sketch.</desc>
    <g id="Icon-SoMe-/-LinkedIn" stroke="none" stroke-width="1" fill="none" fill-rule="evenodd">
        <path d="M35.0846088,35.0852778 L29.1558846,35.0852778 L29.1558846,25.8019444 C29.1558846,23.5883333 29.1153301,20.7408333 26.0731924,20.7408333 C22.9860559,20.7408333 22.5121802,23.1522222 22.5121802,25.6419444 L22.5121802,35.0852778 L16.5848449,35.0852778 L16.5848449,15.9958333 L22.2749646,15.9958333 L22.2749646,18.6041667 L22.3544068,18.6041667 C23.146607,17.1036111 25.0815533,15.5213889 27.967862,15.5213889 C33.9754729,15.5213889 35.0846088,19.4752778 35.0846088,24.6147222 L35.0846088,35.0852778 Z M9.89836393,13.3863889 C7.99702786,13.3863889 6.45790395,11.845 6.45790395,9.94583333 C6.45790395,8.04833333 7.99702786,6.50694444 9.89836393,6.50694444 C11.7949779,6.50694444 13.336324,8.04833333 13.336324,9.94583333 C13.336324,11.845 11.7949779,13.3863889 9.89836393,13.3863889 Z M6.93066859,35.0852778 L12.8635593,35.0852778 L12.8635593,15.9958333 L6.93066859,15.9958333 L6.93066859,35.0852778 Z M38.0392489,1 L3.95241799,1 C2.32357435,1 1,2.29111111 1,3.88222222 L1,38.1138889 C1,39.7069444 2.32357435,41 3.95241799,41 L38.0392489,41 C39.6708703,41 41,39.7069444 41,38.1138889 L41,3.88222222 C41,2.29111111 39.6708703,1 38.0392489,1 L38.0392489,1 Z" id="Fill-10" fill="#666666"></path>
    </g>
</svg>