<?xml version="1.0" encoding="UTF-8"?>
<svg width="42px" height="42px" viewBox="0 0 42 42" version="1.1" xmlns="http://www.w3.org/2000/svg" xmlns:xlink="http://www.w3.org/1999/xlink">
    <!-- Generator: Sketch 54.1 (76490) - https://sketchapp.com -->
    <title>Icon SoMe / YouTube</title>
    <desc>Created with Sketch.</desc>
    <g id="Icon-SoMe-/-YouTube" stroke="none" stroke-width="1" fill="none" fill-rule="evenodd">
        <path d="M40.1641591,11.3722452 C41.0000682,14.4915355 41.0000682,20.9999548 41.0000682,20.9999548 C41.0000682,20.9999548 41.0000682,27.5081484 40.1641591,30.6276645 C39.7041591,32.3487613 38.3487045,33.7040516 36.6275682,34.1642452 C33.5084773,34.9999548 21.0000682,34.9999548 21.0000682,34.9999548 C21.0000682,34.9999548 8.49165909,34.9999548 5.37234091,34.1642452 C3.65120455,33.7040516 2.29575,32.3487613 1.83575,30.6276645 C1.00006818,27.5081484 1.00006818,20.9999548 1.00006818,20.9999548 C1.00006818,20.9999548 1.00006818,14.4915355 1.83575,11.3722452 C2.29575,9.65114839 3.65120455,8.29585806 5.37234091,7.83589032 C8.49165909,6.99995484 21.0000682,6.99995484 21.0000682,6.99995484 C21.0000682,6.99995484 33.5084773,6.99995484 36.6275682,7.83589032 C38.3487045,8.29585806 39.7041591,9.65114839 40.1641591,11.3722452 Z M16.9090909,26.9091065 L27.3636364,21.0002032 L16.9090909,15.0908484 L16.9090909,26.9091065 Z" id="Combined-Shape" fill="#666666"></path>
    </g>
</svg>